<svg version="1.1" xmlns="http://www.w3.org/2000/svg" viewBox="-240.64000244140624 -1537.2159606933594 5019.18438465223 2327.423986816406"><desc>Created with Snap</desc><defs></defs><g><rect x="-240.64000244140624" y="-1537.2159606933594" width="5019.18438465223" height="2327.423986816406" fill="#000000" style=""></rect><g transform="matrix(19.741,0,0,19.741,2595.9508,-1360.5631)"><g><path d="M82.966,30.566c-6.635,0-12.033,5.398-12.033,12.033c0,0.727,0.075,1.433,0.199,2.123l-10.315,3.353   c-1.494-3.082-4.28-5.515-7.852-6.425c-0.438-0.111-0.885-0.19-1.332-0.252V30.556c5.863-0.803,10.398-5.83,10.398-11.908   c0-6.636-5.399-12.035-12.035-12.035s-12.032,5.399-12.032,12.035c0,6.078,4.534,11.105,10.396,11.908v10.843   c-4.001,0.546-7.442,3.066-9.186,6.676l-10.306-3.349c0.124-0.69,0.199-1.398,0.199-2.125c0-6.635-5.398-12.032-12.033-12.032   C10.398,30.568,5,35.966,5,42.601c0,6.636,5.398,12.035,12.034,12.035c4.756,0,8.865-2.781,10.817-6.797l10.314,3.352   c-0.729,4.059,0.688,8.077,3.507,10.794l-6.368,8.765c-1.693-0.91-3.627-1.43-5.68-1.43c-6.636,0-12.035,5.398-12.035,12.033   c0,6.636,5.399,12.035,12.035,12.035c6.635,0,12.032-5.399,12.032-12.035c0-3.405-1.429-6.479-3.71-8.67l6.377-8.774   c0.841,0.45,1.739,0.818,2.704,1.063c0.976,0.248,1.977,0.373,2.975,0.373c2.035,0,3.973-0.512,5.676-1.426l6.368,8.763   c-2.283,2.192-3.712,5.266-3.712,8.671c0,6.636,5.399,12.035,12.035,12.035c6.635,0,12.033-5.399,12.033-12.035   c0-6.635-5.398-12.033-12.033-12.033c-2.054,0-3.987,0.52-5.68,1.43l-6.365-8.76c1.579-1.517,2.761-3.469,3.332-5.709   c0.438-1.721,0.468-3.447,0.17-5.09l10.321-3.354c1.952,4.016,6.061,6.798,10.817,6.798C89.602,54.634,95,49.235,95,42.6   C95,35.965,89.602,30.566,82.966,30.566z M17.034,51.362c-4.831,0-8.761-3.931-8.761-8.762c0-4.829,3.93-8.759,8.761-8.759   c4.829,0,8.76,3.93,8.76,8.759C25.794,47.432,21.863,51.362,17.034,51.362z M38.384,81.353c0,4.831-3.93,8.762-8.759,8.762   c-4.831,0-8.762-3.931-8.762-8.762c0-4.829,3.931-8.759,8.762-8.759C34.454,72.594,38.384,76.523,38.384,81.353z M70.37,72.594   c4.829,0,8.76,3.93,8.76,8.759c0,4.831-3.931,8.762-8.76,8.762c-4.83,0-8.762-3.931-8.762-8.762   C61.608,76.523,65.54,72.594,70.37,72.594z M41.237,18.647c0-4.831,3.929-8.762,8.759-8.762c4.831,0,8.761,3.931,8.761,8.762   c0,4.829-3.93,8.759-8.761,8.759C45.166,27.406,41.237,23.477,41.237,18.647z M58.484,55.474c-0.988,3.884-4.478,6.598-8.481,6.598   c-0.728,0-1.456-0.092-2.168-0.273c-4.678-1.19-7.516-5.967-6.325-10.646c0.991-3.886,4.479-6.6,8.483-6.6   c0.727,0,1.454,0.092,2.165,0.272C56.836,46.018,59.674,50.795,58.484,55.474z M82.966,51.36c-4.829,0-8.76-3.931-8.76-8.761   s3.931-8.76,8.76-8.76c4.831,0,8.761,3.93,8.761,8.76S87.797,51.36,82.966,51.36z" fill="#e0aaff" style=""></path></g><desc>Created with Snap</desc><defs></defs></g><g><g transform="matrix(0.512,0,0,-0.512,0,0)"><path d="M166 1013L344 1013L344 0L166 0L166 1013ZM384 1331Q384 1305 373 1282Q363 1260 345 1242Q328 1225 305 1215Q282 1205 256 1205Q230 1205 207 1215Q185 1225 167 1242Q150 1260 140 1282Q130 1305 130 1331Q130 1357 140 1380Q150 1404 167 1421Q185 1439 207 1449Q230 1459 256 1459Q282 1459 305 1449Q328 1439 345 1421Q363 1404 373 1380Q384 1357 384 1331ZM540 1433L1662 1433L1662 1270L1199 1270L1199 0L1005 0L1005 1270L540 1270L540 1433ZM2239 1029Q2330 1029 2407 998Q2484 968 2540 910Q2596 853 2627 768Q2659 684 2659 576Q2659 534 2650 520Q2641 506 2616 506L1942 506Q1944 410 1968 339Q1992 268 2034 220Q2076 173 2134 149Q2192 126 2264 126Q2331 126 2379 141Q2428 157 2463 175Q2498 193 2521 208Q2545 224 2562 224Q2584 224 2596 207L2646 142Q2613 102 2567 72Q2521 43 2468 24Q2416 5 2360 -5Q2304 -14 2249 -14Q2144 -14 2055 21Q1967 57 1902 125Q1838 194 1802 295Q1766 396 1766 527Q1766 633 1798 725Q1831 817 1892 884Q1953 952 2041 990Q2129 1029 2239 1029ZM2243 898Q2114 898 2040 823Q1966 749 1948 617L2499 617Q2499 679 2482 730Q2465 782 2432 819Q2399 857 2351 877Q2304 898 2243 898ZM3624 897L3577 833Q3569 822 3561 816Q3553 810 3538 810Q3523 810 3505 822Q3488 835 3461 850Q3434 865 3395 877Q3357 890 3301 890Q3227 890 3170 863Q3113 837 3074 787Q3036 737 3016 666Q2997 595 2997 507Q2997 415 3018 343Q3039 272 3077 223Q3115 175 3169 149Q3224 124 3292 124Q3357 124 3399 139Q3441 155 3469 174Q3497 193 3515 208Q3533 224 3551 224Q3574 224 3585 207L3635 142Q3569 61 3470 23Q3371 -14 3261 -14Q3166 -14 3084 21Q3003 56 2943 122Q2883 189 2848 286Q2814 383 2814 507Q2814 620 2845 716Q2877 812 2937 881Q2998 951 3087 990Q3176 1029 3291 1029Q3397 1029 3479 994Q3561 960 3624 897ZM3998 0L3820 0L3820 1473L3998 1473L3998 877Q4063 946 4142 987Q4221 1029 4324 1029Q4407 1029 4470 1001Q4534 974 4576 923Q4619 873 4641 802Q4663 731 4663 645L4663 0L4485 0L4485 645Q4485 760 4432 823Q4380 887 4272 887Q4193 887 4124 849Q4056 811 3998 746L3998 0Z" fill="#ffffff" style=""></path></g></g></g></svg>